<svg xmlns="http://www.w3.org/2000/svg" xmlns:xlink="http://www.w3.org/1999/xlink" width="323" zoomAndPan="magnify" viewBox="0 0 242.25 231" height="308" preserveAspectRatio="xMidYMid meet" version="1.0"><defs><g/><clipPath id="32e6a07954"><path d="M 5.785156 0.355469 L 235.324219 0.355469 L 235.324219 229.894531 L 5.785156 229.894531 Z M 5.785156 0.355469 " clip-rule="nonzero"/></clipPath></defs><g clip-path="url(#32e6a07954)"><path fill="#eeeeee" d="M 132.929688 137.0625 C 135.238281 138.578125 137.546875 139.964844 139.683594 141.078125 C 143.609375 143.121094 148.402344 142.332031 151.464844 139.152344 L 162.707031 127.5 C 165.265625 124.847656 169.320312 124.3125 172.476562 126.214844 L 198.050781 141.585938 C 201.660156 143.761719 203.707031 147.816406 203.300781 152.011719 L 202.773438 157.453125 C 202.152344 163.839844 197.867188 169.277344 191.789062 171.367188 L 177.710938 176.199219 L 175.894531 176.832031 L 174.585938 177.277344 C 171.628906 178.289062 168.476562 178.539062 165.40625 178.003906 C 154.601562 176.113281 128.125 169.710938 104.824219 149.972656 C 101.421875 147.167969 98.097656 144.15625 94.878906 140.941406 C 91.664062 137.726562 88.652344 134.402344 85.847656 131 C 66.113281 107.699219 59.707031 81.214844 57.820312 70.417969 C 57.28125 67.34375 57.535156 64.191406 58.542969 61.238281 L 58.988281 59.945312 L 59.613281 58.125 L 64.457031 44.03125 C 66.546875 37.957031 71.980469 33.667969 78.371094 33.046875 L 83.808594 32.523438 C 88.003906 32.117188 92.0625 34.160156 94.234375 37.773438 L 109.609375 63.34375 C 111.507812 66.503906 110.972656 70.558594 108.324219 73.117188 L 96.671875 84.355469 C 93.492188 87.417969 92.699219 92.214844 94.742188 96.140625 C 95.855469 98.277344 97.242188 100.578125 98.761719 102.894531 C 107.675781 116.5 119.316406 128.140625 132.929688 137.0625 Z M 120.625 0.355469 C 57.199219 0.355469 5.789062 51.769531 5.789062 115.195312 C 5.789062 178.617188 57.203125 230.03125 120.625 230.035156 C 184.050781 230.035156 235.464844 178.621094 235.464844 115.195312 C 235.464844 51.769531 184.050781 0.355469 120.625 0.355469 " fill-opacity="1" fill-rule="nonzero"/></g><g fill="#ffffff" fill-opacity="1"><g transform="translate(118.067362, 208.661575)"><g><path d="M 1.03125 -1.25 C 1.03125 -1.738281 1.160156 -2.109375 1.421875 -2.359375 C 1.679688 -2.609375 2.0625 -2.734375 2.5625 -2.734375 C 3.050781 -2.734375 3.425781 -2.601562 3.6875 -2.34375 C 3.957031 -2.09375 4.09375 -1.726562 4.09375 -1.25 C 4.09375 -0.789062 3.957031 -0.425781 3.6875 -0.15625 C 3.414062 0.101562 3.039062 0.234375 2.5625 0.234375 C 2.070312 0.234375 1.691406 0.101562 1.421875 -0.15625 C 1.160156 -0.414062 1.03125 -0.78125 1.03125 -1.25 Z M 1.03125 -1.25 "/></g></g></g></svg>