<svg xmlns="http://www.w3.org/2000/svg" xmlns:xlink="http://www.w3.org/1999/xlink" width="323" zoomAndPan="magnify" viewBox="0 0 242.25 231" height="308" preserveAspectRatio="xMidYMid meet" version="1.0"><defs><g/><clipPath id="7d472c00fa"><path d="M 6.109375 0.355469 L 235.648438 0.355469 L 235.648438 229.894531 L 6.109375 229.894531 Z M 6.109375 0.355469 " clip-rule="nonzero"/></clipPath></defs><g clip-path="url(#7d472c00fa)"><path fill="#eeeeee" d="M 120.949219 0.355469 C 184.371094 0.355469 235.789062 51.773438 235.789062 115.195312 C 235.789062 178.621094 184.371094 230.035156 120.949219 230.035156 C 57.523438 230.035156 6.109375 178.621094 6.109375 115.195312 C 6.109375 51.773438 57.523438 0.355469 120.949219 0.355469 Z M 189.289062 163.101562 C 189.585938 163.097656 189.882812 163.070312 190.175781 163.011719 C 190.46875 162.953125 190.753906 162.867188 191.03125 162.75 C 191.308594 162.636719 191.570312 162.496094 191.816406 162.328125 C 192.066406 162.164062 192.296875 161.976562 192.507812 161.761719 C 192.71875 161.550781 192.910156 161.320312 193.074219 161.074219 C 193.242188 160.824219 193.382812 160.5625 193.496094 160.285156 C 193.609375 160.007812 193.695312 159.726562 193.753906 159.429688 C 193.8125 159.136719 193.84375 158.84375 193.84375 158.542969 L 193.84375 72.476562 L 124.183594 127.792969 C 123.726562 128.160156 123.21875 128.4375 122.664062 128.632812 C 122.105469 128.828125 121.535156 128.921875 120.949219 128.921875 C 120.359375 128.921875 119.789062 128.828125 119.234375 128.632812 C 118.675781 128.4375 118.167969 128.160156 117.710938 127.792969 L 48.050781 72.476562 L 48.050781 158.542969 C 48.050781 158.84375 48.082031 159.136719 48.140625 159.429688 C 48.199219 159.726562 48.285156 160.007812 48.398438 160.285156 C 48.515625 160.5625 48.65625 160.824219 48.820312 161.074219 C 48.988281 161.320312 49.175781 161.550781 49.386719 161.761719 C 49.597656 161.976562 49.828125 162.164062 50.078125 162.332031 C 50.328125 162.496094 50.589844 162.636719 50.863281 162.75 C 51.140625 162.867188 51.425781 162.953125 51.71875 163.011719 C 52.011719 163.070312 52.308594 163.097656 52.609375 163.101562 Z M 183.625 67.292969 L 58.269531 67.292969 L 120.949219 117.066406 Z M 183.625 67.292969 " fill-opacity="1" fill-rule="evenodd"/></g><g fill="#ffffff" fill-opacity="1"><g transform="translate(118.389389, 204.175464)"><g><path d="M 1.03125 -1.25 C 1.03125 -1.738281 1.160156 -2.109375 1.421875 -2.359375 C 1.679688 -2.609375 2.0625 -2.734375 2.5625 -2.734375 C 3.050781 -2.734375 3.425781 -2.601562 3.6875 -2.34375 C 3.957031 -2.09375 4.09375 -1.726562 4.09375 -1.25 C 4.09375 -0.789062 3.957031 -0.425781 3.6875 -0.15625 C 3.414062 0.101562 3.039062 0.234375 2.5625 0.234375 C 2.070312 0.234375 1.691406 0.101562 1.421875 -0.15625 C 1.160156 -0.414062 1.03125 -0.78125 1.03125 -1.25 Z M 1.03125 -1.25 "/></g></g></g></svg>