<svg xmlns="http://www.w3.org/2000/svg" xmlns:xlink="http://www.w3.org/1999/xlink" width="1503" zoomAndPan="magnify" viewBox="0 0 1127.25 278.999983" height="372" preserveAspectRatio="xMidYMid meet" version="1.0"><defs><g/></defs><g fill="#fffeff" fill-opacity="1"><g transform="translate(73.379465, 182.369816)"><g><path d="M 75.59375 -68.8125 L 75.59375 0 L 54.5 0 L 54.5 -9.375 C 52.363281 -6.332031 49.46875 -3.882812 45.8125 -2.03125 C 42.15625 -0.1875 38.109375 0.734375 33.671875 0.734375 C 28.398438 0.734375 23.75 -0.429688 19.71875 -2.765625 C 15.695312 -5.109375 12.578125 -8.5 10.359375 -12.9375 C 8.140625 -17.382812 7.03125 -22.609375 7.03125 -28.609375 L 7.03125 -68.8125 L 27.984375 -68.8125 L 27.984375 -31.4375 C 27.984375 -26.84375 29.175781 -23.269531 31.5625 -20.71875 C 33.945312 -18.164062 37.15625 -16.890625 41.1875 -16.890625 C 45.300781 -16.890625 48.546875 -18.164062 50.921875 -20.71875 C 53.304688 -23.269531 54.5 -26.84375 54.5 -31.4375 L 54.5 -68.8125 Z M 75.59375 -68.8125 "/></g></g></g><g fill="#fffeff" fill-opacity="1"><g transform="translate(156.490065, 182.369816)"><g><path d="M 28.734375 -57.34375 C 31.203125 -61.125 34.285156 -64.101562 37.984375 -66.28125 C 41.679688 -68.457031 45.789062 -69.546875 50.3125 -69.546875 L 50.3125 -47.234375 L 44.515625 -47.234375 C 39.253906 -47.234375 35.304688 -46.101562 32.671875 -43.84375 C 30.046875 -41.582031 28.734375 -37.613281 28.734375 -31.9375 L 28.734375 0 L 7.640625 0 L 7.640625 -68.8125 L 28.734375 -68.8125 Z M 28.734375 -57.34375 "/></g></g></g><g fill="#fffeff" fill-opacity="1"><g transform="translate(209.266517, 182.369816)"><g><path d="M 28.734375 -59.0625 C 30.703125 -62.269531 33.535156 -64.859375 37.234375 -66.828125 C 40.941406 -68.804688 45.175781 -69.796875 49.9375 -69.796875 C 55.613281 -69.796875 60.753906 -68.351562 65.359375 -65.46875 C 69.960938 -62.59375 73.597656 -58.484375 76.265625 -53.140625 C 78.941406 -47.796875 80.28125 -41.59375 80.28125 -34.53125 C 80.28125 -27.457031 78.941406 -21.226562 76.265625 -15.84375 C 73.597656 -10.457031 69.960938 -6.304688 65.359375 -3.390625 C 60.753906 -0.472656 55.613281 0.984375 49.9375 0.984375 C 45.09375 0.984375 40.859375 0.0195312 37.234375 -1.90625 C 33.617188 -3.84375 30.785156 -6.414062 28.734375 -9.625 L 28.734375 0 L 7.640625 0 L 7.640625 -91.25 L 28.734375 -91.25 Z M 58.8125 -34.53125 C 58.8125 -39.789062 57.351562 -43.921875 54.4375 -46.921875 C 51.519531 -49.921875 47.925781 -51.421875 43.65625 -51.421875 C 39.457031 -51.421875 35.898438 -49.898438 32.984375 -46.859375 C 30.066406 -43.816406 28.609375 -39.664062 28.609375 -34.40625 C 28.609375 -29.144531 30.066406 -24.992188 32.984375 -21.953125 C 35.898438 -18.910156 39.457031 -17.390625 43.65625 -17.390625 C 47.84375 -17.390625 51.414062 -18.929688 54.375 -22.015625 C 57.332031 -25.097656 58.8125 -29.269531 58.8125 -34.53125 Z M 58.8125 -34.53125 "/></g></g></g><g fill="#fffeff" fill-opacity="1"><g transform="translate(292.993675, 182.369816)"><g><path d="M 3.453125 -34.53125 C 3.453125 -41.59375 4.785156 -47.796875 7.453125 -53.140625 C 10.128906 -58.484375 13.769531 -62.59375 18.375 -65.46875 C 22.976562 -68.351562 28.113281 -69.796875 33.78125 -69.796875 C 38.632812 -69.796875 42.890625 -68.804688 46.546875 -66.828125 C 50.203125 -64.859375 53.019531 -62.269531 55 -59.0625 L 55 -68.8125 L 76.078125 -68.8125 L 76.078125 0 L 55 0 L 55 -9.734375 C 52.945312 -6.535156 50.085938 -3.945312 46.421875 -1.96875 C 42.765625 0 38.515625 0.984375 33.671875 0.984375 C 28.078125 0.984375 22.976562 -0.472656 18.375 -3.390625 C 13.769531 -6.304688 10.128906 -10.457031 7.453125 -15.84375 C 4.785156 -21.226562 3.453125 -27.457031 3.453125 -34.53125 Z M 55 -34.40625 C 55 -39.664062 53.535156 -43.816406 50.609375 -46.859375 C 47.691406 -49.898438 44.140625 -51.421875 39.953125 -51.421875 C 35.765625 -51.421875 32.207031 -49.921875 29.28125 -46.921875 C 26.363281 -43.921875 24.90625 -39.789062 24.90625 -34.53125 C 24.90625 -29.269531 26.363281 -25.097656 29.28125 -22.015625 C 32.207031 -18.929688 35.765625 -17.390625 39.953125 -17.390625 C 44.140625 -17.390625 47.691406 -18.910156 50.609375 -21.953125 C 53.535156 -24.992188 55 -29.144531 55 -34.40625 Z M 55 -34.40625 "/></g></g></g><g fill="#fffeff" fill-opacity="1"><g transform="translate(376.720833, 182.369816)"><g><path d="M 49.578125 -69.546875 C 57.628906 -69.546875 64.054688 -66.9375 68.859375 -61.71875 C 73.671875 -56.5 76.078125 -49.328125 76.078125 -40.203125 L 76.078125 0 L 55.125 0 L 55.125 -37.359375 C 55.125 -41.960938 53.929688 -45.539062 51.546875 -48.09375 C 49.160156 -50.644531 45.953125 -51.921875 41.921875 -51.921875 C 37.898438 -51.921875 34.695312 -50.644531 32.3125 -48.09375 C 29.925781 -45.539062 28.734375 -41.960938 28.734375 -37.359375 L 28.734375 0 L 7.640625 0 L 7.640625 -68.8125 L 28.734375 -68.8125 L 28.734375 -59.6875 C 30.867188 -62.726562 33.742188 -65.128906 37.359375 -66.890625 C 40.984375 -68.660156 45.054688 -69.546875 49.578125 -69.546875 Z M 49.578125 -69.546875 "/></g></g></g><g fill="#a8d5ba" fill-opacity="1"><g transform="translate(482.357327, 182.369816)"><g><path d="M 82.625 -86.5625 L 82.625 0 L 61.53125 0 L 61.53125 -35.640625 L 28.734375 -35.640625 L 28.734375 0 L 7.640625 0 L 7.640625 -86.5625 L 28.734375 -86.5625 L 28.734375 -52.65625 L 61.53125 -52.65625 L 61.53125 -86.5625 Z M 82.625 -86.5625 "/></g></g></g><g fill="#a8d5ba" fill-opacity="1"><g transform="translate(572.496571, 182.369816)"><g><path d="M 61.53125 -15.296875 L 29.21875 -15.296875 L 24.046875 0 L 1.96875 0 L 33.296875 -86.5625 L 57.703125 -86.5625 L 89.03125 0 L 66.71875 0 Z M 56.109375 -31.5625 L 45.375 -63.265625 L 34.78125 -31.5625 Z M 56.109375 -31.5625 "/></g></g></g><g fill="#a8d5ba" fill-opacity="1"><g transform="translate(663.375683, 182.369816)"><g><path d="M 51.796875 0 L 33.78125 -32.671875 L 28.734375 -32.671875 L 28.734375 0 L 7.640625 0 L 7.640625 -86.5625 L 43.03125 -86.5625 C 49.851562 -86.5625 55.671875 -85.367188 60.484375 -82.984375 C 65.296875 -80.597656 68.890625 -77.328125 71.265625 -73.171875 C 73.648438 -69.023438 74.84375 -64.40625 74.84375 -59.3125 C 74.84375 -53.5625 73.21875 -48.421875 69.96875 -43.890625 C 66.726562 -39.367188 61.941406 -36.164062 55.609375 -34.28125 L 75.59375 0 Z M 28.734375 -47.59375 L 41.796875 -47.59375 C 45.660156 -47.59375 48.554688 -48.535156 50.484375 -50.421875 C 52.421875 -52.316406 53.390625 -54.992188 53.390625 -58.453125 C 53.390625 -61.734375 52.421875 -64.320312 50.484375 -66.21875 C 48.554688 -68.113281 45.660156 -69.0625 41.796875 -69.0625 L 28.734375 -69.0625 Z M 28.734375 -47.59375 "/></g></g></g><g fill="#a8d5ba" fill-opacity="1"><g transform="translate(743.773484, 182.369816)"><g><path d="M 88.90625 -86.5625 L 58.203125 0 L 31.8125 0 L 1.109375 -86.5625 L 23.546875 -86.5625 L 45.015625 -21.203125 L 66.59375 -86.5625 Z M 88.90625 -86.5625 "/></g></g></g><g fill="#a8d5ba" fill-opacity="1"><g transform="translate(833.789437, 182.369816)"><g><path d="M 28.734375 -69.671875 L 28.734375 -52.15625 L 56.96875 -52.15625 L 56.96875 -35.890625 L 28.734375 -35.890625 L 28.734375 -16.890625 L 60.671875 -16.890625 L 60.671875 0 L 7.640625 0 L 7.640625 -86.5625 L 60.671875 -86.5625 L 60.671875 -69.671875 Z M 28.734375 -69.671875 "/></g></g></g><g fill="#a8d5ba" fill-opacity="1"><g transform="translate(900.499888, 182.369816)"><g><path d="M 38.96875 0.859375 C 32.632812 0.859375 26.957031 -0.164062 21.9375 -2.21875 C 16.925781 -4.269531 12.921875 -7.3125 9.921875 -11.34375 C 6.921875 -15.375 5.335938 -20.222656 5.171875 -25.890625 L 27.625 -25.890625 C 27.945312 -22.691406 29.050781 -20.25 30.9375 -18.5625 C 32.832031 -16.875 35.300781 -16.03125 38.34375 -16.03125 C 41.46875 -16.03125 43.9375 -16.75 45.75 -18.1875 C 47.5625 -19.625 48.46875 -21.617188 48.46875 -24.171875 C 48.46875 -26.304688 47.742188 -28.070312 46.296875 -29.46875 C 44.859375 -30.863281 43.09375 -32.015625 41 -32.921875 C 38.90625 -33.828125 35.925781 -34.851562 32.0625 -36 C 26.46875 -37.726562 21.90625 -39.457031 18.375 -41.1875 C 14.84375 -42.914062 11.800781 -45.460938 9.25 -48.828125 C 6.695312 -52.203125 5.421875 -56.601562 5.421875 -62.03125 C 5.421875 -70.082031 8.335938 -76.390625 14.171875 -80.953125 C 20.015625 -85.515625 27.625 -87.796875 37 -87.796875 C 46.53125 -87.796875 54.210938 -85.515625 60.046875 -80.953125 C 65.890625 -76.390625 69.015625 -70.039062 69.421875 -61.90625 L 46.609375 -61.90625 C 46.441406 -64.695312 45.410156 -66.894531 43.515625 -68.5 C 41.628906 -70.101562 39.207031 -70.90625 36.25 -70.90625 C 33.707031 -70.90625 31.65625 -70.222656 30.09375 -68.859375 C 28.53125 -67.503906 27.75 -65.554688 27.75 -63.015625 C 27.75 -60.210938 29.0625 -58.03125 31.6875 -56.46875 C 34.320312 -54.914062 38.429688 -53.234375 44.015625 -51.421875 C 49.609375 -49.523438 54.148438 -47.710938 57.640625 -45.984375 C 61.140625 -44.265625 64.160156 -41.757812 66.703125 -38.46875 C 69.253906 -35.1875 70.53125 -30.953125 70.53125 -25.765625 C 70.53125 -20.835938 69.273438 -16.359375 66.765625 -12.328125 C 64.265625 -8.296875 60.628906 -5.085938 55.859375 -2.703125 C 51.085938 -0.328125 45.457031 0.859375 38.96875 0.859375 Z M 38.96875 0.859375 "/></g></g></g><g fill="#a8d5ba" fill-opacity="1"><g transform="translate(976.335238, 182.369816)"><g><path d="M 69.921875 -86.5625 L 69.921875 -69.671875 L 46.984375 -69.671875 L 46.984375 0 L 25.890625 0 L 25.890625 -69.671875 L 2.953125 -69.671875 L 2.953125 -86.5625 Z M 69.921875 -86.5625 "/></g></g></g><path stroke-linecap="butt" transform="matrix(0.749501, 0, 0, 0.749501, 65.478206, 207.07737)" fill="none" stroke-linejoin="miter" d="M -0.00219261 9.502116 L 657.914446 9.502116 " stroke="#f5fed9" stroke-width="19" stroke-opacity="1" stroke-miterlimit="4"/></svg>