<svg xmlns="http://www.w3.org/2000/svg" xmlns:xlink="http://www.w3.org/1999/xlink" width="910" zoomAndPan="magnify" viewBox="0 0 682.5 609.749982" height="813" preserveAspectRatio="xMidYMid meet" version="1.0"><defs><clipPath id="d6a58707d7"><path d="M 509 0.0976562 L 621 0.0976562 L 621 268 L 509 268 Z M 509 0.0976562 " clip-rule="nonzero"/></clipPath><clipPath id="dd357eb8f6"><path d="M 0 82 L 193 82 L 193 608.652344 L 0 608.652344 Z M 0 82 " clip-rule="nonzero"/></clipPath><clipPath id="69c7efb13c"><path d="M 453 0.0976562 L 621 0.0976562 L 621 266 L 453 266 Z M 453 0.0976562 " clip-rule="nonzero"/></clipPath><clipPath id="fc9df48ba5"><path d="M 203.101562 372.023438 L 259.316406 372.023438 L 259.316406 428.238281 L 203.101562 428.238281 Z M 203.101562 372.023438 " clip-rule="nonzero"/></clipPath><clipPath id="cab3671a84"><path d="M 231.210938 372.023438 C 215.6875 372.023438 203.101562 384.605469 203.101562 400.128906 C 203.101562 415.652344 215.6875 428.238281 231.210938 428.238281 C 246.734375 428.238281 259.316406 415.652344 259.316406 400.128906 C 259.316406 384.605469 246.734375 372.023438 231.210938 372.023438 Z M 231.210938 372.023438 " clip-rule="nonzero"/></clipPath></defs><path fill="#2c6b2f" d="M 155.589844 605.164062 C 252.074219 534.980469 275.089844 473.175781 277.941406 429.296875 C 282.449219 360.011719 238.015625 315.039062 205.761719 161.9375 C 198.695312 128.402344 194.527344 100.664062 192.128906 82.675781 C 185.824219 129.886719 177.949219 178.046875 175.347656 227.722656 C 168.765625 353.539062 162.175781 479.347656 155.589844 605.164062 " fill-opacity="1" fill-rule="nonzero"/><path fill="#2c6b2f" d="M 350.988281 528.574219 C 432.59375 564.988281 479.324219 555.851562 507.027344 540.402344 C 550.769531 516.007812 559.957031 468.675781 639.496094 386.695312 C 656.921875 368.738281 672.007812 355 681.917969 346.289062 C 650.800781 360.761719 618.464844 374.566406 587.355469 392.480469 C 508.570312 437.84375 429.78125 483.210938 350.988281 528.574219 " fill-opacity="1" fill-rule="nonzero"/><g clip-path="url(#d6a58707d7)"><path fill="#2c6b2f" d="M 509.261719 267.753906 C 572.242188 248.324219 595.195312 220.046875 604.421875 197.542969 C 618.984375 162.007812 603.601562 130.402344 613.640625 44.269531 C 615.84375 25.402344 618.542969 10.097656 620.453125 0.230469 C 608.832031 23.859375 596.214844 47.703125 586.105469 73.300781 C 560.484375 138.113281 534.875 202.933594 509.261719 267.753906 " fill-opacity="1" fill-rule="nonzero"/></g><g clip-path="url(#dd357eb8f6)"><path fill="#a8d5ba" d="M 130.269531 608.839844 C 150.890625 433.457031 171.507812 258.0625 192.128906 82.675781 C 19.742188 230.773438 -40.457031 414.796875 27.074219 525.078125 C 40.894531 547.652344 69.132812 581.933594 130.269531 608.839844 " fill-opacity="1" fill-rule="nonzero"/></g><path fill="#a8d5ba" d="M 338.488281 513.183594 C 452.964844 457.554688 567.441406 401.921875 681.917969 346.289062 C 522.378906 290.199219 386.621094 322.925781 347.300781 411.4375 C 339.25 429.558594 329.964844 461.886719 338.488281 513.183594 " fill-opacity="1" fill-rule="nonzero"/><g clip-path="url(#69c7efb13c)"><path fill="#a8d5ba" d="M 495.328125 265.117188 C 537.035156 176.820312 578.742188 88.523438 620.453125 0.230469 C 503.925781 46.847656 439.933594 132.539062 455.941406 202.566406 C 459.222656 216.898438 467.992188 239.976562 495.328125 265.117188 " fill-opacity="1" fill-rule="nonzero"/></g><g clip-path="url(#fc9df48ba5)"><g clip-path="url(#cab3671a84)"><path fill="#2c6b2f" d="M 203.101562 372.023438 L 259.316406 372.023438 L 259.316406 428.238281 L 203.101562 428.238281 Z M 203.101562 372.023438 " fill-opacity="1" fill-rule="nonzero"/></g></g></svg>