<svg xmlns="http://www.w3.org/2000/svg" xmlns:xlink="http://www.w3.org/1999/xlink" width="502" zoomAndPan="magnify" viewBox="0 0 376.5 335.999987" height="448" preserveAspectRatio="xMidYMid meet" version="1.0"><defs><clipPath id="4625e09b50"><path d="M 280 0.222656 L 342 0.222656 L 342 148 L 280 148 Z M 280 0.222656 " clip-rule="nonzero"/></clipPath><clipPath id="ae82c70831"><path d="M 0 45.183594 L 106 45.183594 L 106 335.691406 L 0 335.691406 Z M 0 45.183594 " clip-rule="nonzero"/></clipPath><clipPath id="23f2aaf14e"><path d="M 249 0.222656 L 342 0.222656 L 342 147 L 249 147 Z M 249 0.222656 " clip-rule="nonzero"/></clipPath><clipPath id="b5329f354b"><path d="M 15.488281 194.472656 L 71.667969 194.472656 L 71.667969 250.65625 L 15.488281 250.65625 Z M 15.488281 194.472656 " clip-rule="nonzero"/></clipPath><clipPath id="4ebf06a212"><path d="M 43.578125 194.472656 C 28.0625 194.472656 15.488281 207.050781 15.488281 222.5625 C 15.488281 238.078125 28.0625 250.65625 43.578125 250.65625 C 59.09375 250.65625 71.667969 238.078125 71.667969 222.5625 C 71.667969 207.050781 59.09375 194.472656 43.578125 194.472656 Z M 43.578125 194.472656 " clip-rule="nonzero"/></clipPath></defs><path fill="#f5fed9" d="M 85.742188 333.664062 C 138.914062 294.988281 151.59375 260.925781 153.167969 236.75 C 155.652344 198.566406 131.164062 173.78125 113.390625 89.410156 C 109.496094 70.933594 107.199219 55.644531 105.878906 45.734375 C 102.40625 71.75 98.0625 98.289062 96.628906 125.664062 C 93.003906 195 89.371094 264.328125 85.742188 333.664062 " fill-opacity="1" fill-rule="nonzero"/><path fill="#f5fed9" d="M 193.421875 291.457031 C 238.394531 311.523438 264.144531 306.488281 279.410156 297.976562 C 303.515625 284.535156 308.582031 258.449219 352.414062 213.269531 C 362.015625 203.375 370.328125 195.804688 375.789062 191.003906 C 358.640625 198.980469 340.820312 206.585938 323.679688 216.457031 C 280.261719 241.457031 236.84375 266.457031 193.421875 291.457031 " fill-opacity="1" fill-rule="nonzero"/><g clip-path="url(#4625e09b50)"><path fill="#f5fed9" d="M 280.640625 147.726562 C 315.347656 137.019531 328 121.4375 333.082031 109.03125 C 341.109375 89.449219 332.632812 72.035156 338.164062 24.566406 C 339.378906 14.167969 340.867188 5.738281 341.917969 0.300781 C 335.515625 13.320312 328.5625 26.460938 322.988281 40.566406 C 308.871094 76.285156 294.757812 112.003906 280.640625 147.726562 " fill-opacity="1" fill-rule="nonzero"/></g><g clip-path="url(#ae82c70831)"><path fill="#a8d5ba" d="M 71.789062 335.691406 C 83.152344 239.039062 94.515625 142.386719 105.878906 45.734375 C 10.878906 127.347656 -22.296875 228.757812 14.921875 289.53125 C 22.535156 301.96875 38.097656 320.863281 71.789062 335.691406 " fill-opacity="1" fill-rule="nonzero"/></g><path fill="#a8d5ba" d="M 186.535156 282.976562 C 249.621094 252.320312 312.703125 221.660156 375.789062 191.003906 C 287.871094 160.09375 213.058594 178.128906 191.390625 226.90625 C 186.953125 236.890625 181.835938 254.707031 186.535156 282.976562 " fill-opacity="1" fill-rule="nonzero"/><g clip-path="url(#23f2aaf14e)"><path fill="#a8d5ba" d="M 272.964844 146.273438 C 295.949219 97.613281 318.933594 48.953125 341.917969 0.300781 C 277.703125 25.988281 242.4375 73.210938 251.257812 111.800781 C 253.066406 119.699219 257.902344 132.417969 272.964844 146.273438 " fill-opacity="1" fill-rule="nonzero"/></g><g clip-path="url(#b5329f354b)"><g clip-path="url(#4ebf06a212)"><path fill="#a8d5ba" d="M 15.488281 194.472656 L 71.667969 194.472656 L 71.667969 250.65625 L 15.488281 250.65625 Z M 15.488281 194.472656 " fill-opacity="1" fill-rule="nonzero"/></g></g></svg>