<svg xmlns="http://www.w3.org/2000/svg" xmlns:xlink="http://www.w3.org/1999/xlink" width="1801" zoomAndPan="magnify" viewBox="0 0 1350.75 630.749998" height="841" preserveAspectRatio="xMidYMid meet" version="1.0"><defs><g/></defs><g fill="#000000" fill-opacity="1"><g transform="translate(104.304768, 289.780887)"><g><path d="M 120.25 -109.453125 L 120.25 0 L 86.703125 0 L 86.703125 -14.90625 C 83.296875 -10.070312 78.679688 -6.179688 72.859375 -3.234375 C 67.046875 -0.296875 60.609375 1.171875 53.546875 1.171875 C 45.179688 1.171875 37.789062 -0.6875 31.375 -4.40625 C 24.96875 -8.132812 20 -13.53125 16.46875 -20.59375 C 12.945312 -27.65625 11.1875 -35.960938 11.1875 -45.515625 L 11.1875 -109.453125 L 44.53125 -109.453125 L 44.53125 -50.015625 C 44.53125 -42.691406 46.425781 -37.003906 50.21875 -32.953125 C 54.007812 -28.898438 59.109375 -26.875 65.515625 -26.875 C 72.054688 -26.875 77.222656 -28.898438 81.015625 -32.953125 C 84.804688 -37.003906 86.703125 -42.691406 86.703125 -50.015625 L 86.703125 -109.453125 Z M 120.25 -109.453125 "/></g></g></g><g fill="#000000" fill-opacity="1"><g transform="translate(236.512771, 289.780887)"><g><path d="M 45.703125 -91.21875 C 49.628906 -97.226562 54.535156 -101.960938 60.421875 -105.421875 C 66.304688 -108.890625 72.84375 -110.625 80.03125 -110.625 L 80.03125 -75.125 L 70.8125 -75.125 C 62.445312 -75.125 56.171875 -73.328125 51.984375 -69.734375 C 47.796875 -66.140625 45.703125 -59.828125 45.703125 -50.796875 L 45.703125 0 L 12.15625 0 L 12.15625 -109.453125 L 45.703125 -109.453125 Z M 45.703125 -91.21875 "/></g></g></g><g fill="#000000" fill-opacity="1"><g transform="translate(320.466801, 289.780887)"><g><path d="M 45.703125 -93.953125 C 48.835938 -99.054688 53.347656 -103.175781 59.234375 -106.3125 C 65.117188 -109.457031 71.851562 -111.03125 79.4375 -111.03125 C 88.46875 -111.03125 96.644531 -108.738281 103.96875 -104.15625 C 111.289062 -99.582031 117.078125 -93.046875 121.328125 -84.546875 C 125.578125 -76.046875 127.703125 -66.171875 127.703125 -54.921875 C 127.703125 -43.671875 125.578125 -33.765625 121.328125 -25.203125 C 117.078125 -16.640625 111.289062 -10.035156 103.96875 -5.390625 C 96.644531 -0.753906 88.46875 1.5625 79.4375 1.5625 C 71.726562 1.5625 64.992188 0.0234375 59.234375 -3.046875 C 53.484375 -6.117188 48.972656 -10.203125 45.703125 -15.296875 L 45.703125 0 L 12.15625 0 L 12.15625 -145.15625 L 45.703125 -145.15625 Z M 93.5625 -54.921875 C 93.5625 -63.296875 91.238281 -69.867188 86.59375 -74.640625 C 81.957031 -79.410156 76.238281 -81.796875 69.4375 -81.796875 C 62.769531 -81.796875 57.113281 -79.375 52.46875 -74.53125 C 47.832031 -69.695312 45.515625 -63.097656 45.515625 -54.734375 C 45.515625 -46.359375 47.832031 -39.75 52.46875 -34.90625 C 57.113281 -30.070312 62.769531 -27.65625 69.4375 -27.65625 C 76.101562 -27.65625 81.789062 -30.109375 86.5 -35.015625 C 91.207031 -39.921875 93.5625 -46.554688 93.5625 -54.921875 Z M 93.5625 -54.921875 "/></g></g></g><g fill="#000000" fill-opacity="1"><g transform="translate(453.655591, 289.780887)"><g><path d="M 5.5 -54.921875 C 5.5 -66.171875 7.625 -76.046875 11.875 -84.546875 C 16.125 -93.046875 21.910156 -99.582031 29.234375 -104.15625 C 36.554688 -108.738281 44.726562 -111.03125 53.75 -111.03125 C 61.457031 -111.03125 68.222656 -109.457031 74.046875 -106.3125 C 79.867188 -103.175781 84.347656 -99.054688 87.484375 -93.953125 L 87.484375 -109.453125 L 121.03125 -109.453125 L 121.03125 0 L 87.484375 0 L 87.484375 -15.5 C 84.210938 -10.394531 79.664062 -6.273438 73.84375 -3.140625 C 68.03125 -0.00390625 61.265625 1.5625 53.546875 1.5625 C 44.660156 1.5625 36.554688 -0.753906 29.234375 -5.390625 C 21.910156 -10.035156 16.125 -16.640625 11.875 -25.203125 C 7.625 -33.765625 5.5 -43.671875 5.5 -54.921875 Z M 87.484375 -54.734375 C 87.484375 -63.097656 85.160156 -69.695312 80.515625 -74.53125 C 75.878906 -79.375 70.222656 -81.796875 63.546875 -81.796875 C 56.878906 -81.796875 51.222656 -79.410156 46.578125 -74.640625 C 41.941406 -69.867188 39.625 -63.296875 39.625 -54.921875 C 39.625 -46.554688 41.941406 -39.921875 46.578125 -35.015625 C 51.222656 -30.109375 56.878906 -27.65625 63.546875 -27.65625 C 70.222656 -27.65625 75.878906 -30.070312 80.515625 -34.90625 C 85.160156 -39.75 87.484375 -46.359375 87.484375 -54.734375 Z M 87.484375 -54.734375 "/></g></g></g><g fill="#000000" fill-opacity="1"><g transform="translate(586.844382, 289.780887)"><g><path d="M 78.859375 -110.625 C 91.671875 -110.625 101.898438 -106.472656 109.546875 -98.171875 C 117.203125 -89.867188 121.03125 -78.460938 121.03125 -63.953125 L 121.03125 0 L 87.6875 0 L 87.6875 -59.4375 C 87.6875 -66.757812 85.789062 -72.445312 82 -76.5 C 78.207031 -80.550781 73.101562 -82.578125 66.6875 -82.578125 C 60.28125 -82.578125 55.179688 -80.550781 51.390625 -76.5 C 47.597656 -72.445312 45.703125 -66.757812 45.703125 -59.4375 L 45.703125 0 L 12.15625 0 L 12.15625 -109.453125 L 45.703125 -109.453125 L 45.703125 -94.9375 C 49.097656 -99.78125 53.671875 -103.601562 59.421875 -106.40625 C 65.179688 -109.21875 71.660156 -110.625 78.859375 -110.625 Z M 78.859375 -110.625 "/></g></g></g><g fill="#2c6b2f" fill-opacity="1"><g transform="translate(189.977095, 479.962696)"><g><path d="M 128.71875 -134.875 L 128.71875 0 L 95.875 0 L 95.875 -55.53125 L 44.765625 -55.53125 L 44.765625 0 L 11.90625 0 L 11.90625 -134.875 L 44.765625 -134.875 L 44.765625 -82.03125 L 95.875 -82.03125 L 95.875 -134.875 Z M 128.71875 -134.875 "/></g></g></g><g fill="#2c6b2f" fill-opacity="1"><g transform="translate(351.35246, 479.962696)"><g><path d="M 95.875 -23.828125 L 45.53125 -23.828125 L 37.46875 0 L 3.078125 0 L 51.875 -134.875 L 89.921875 -134.875 L 138.71875 0 L 103.9375 0 Z M 87.421875 -49.1875 L 70.703125 -98.5625 L 54.171875 -49.1875 Z M 87.421875 -49.1875 "/></g></g></g><g fill="#2c6b2f" fill-opacity="1"><g transform="translate(513.880496, 479.962696)"><g><path d="M 80.6875 0 L 52.640625 -50.90625 L 44.765625 -50.90625 L 44.765625 0 L 11.90625 0 L 11.90625 -134.875 L 67.046875 -134.875 C 77.679688 -134.875 86.742188 -133.015625 94.234375 -129.296875 C 101.734375 -125.585938 107.335938 -120.5 111.046875 -114.03125 C 114.765625 -107.5625 116.625 -100.351562 116.625 -92.40625 C 116.625 -83.445312 114.09375 -75.441406 109.03125 -68.390625 C 103.96875 -61.347656 96.503906 -56.351562 86.640625 -53.40625 L 117.765625 0 Z M 44.765625 -74.15625 L 65.125 -74.15625 C 71.144531 -74.15625 75.660156 -75.628906 78.671875 -78.578125 C 81.679688 -81.523438 83.1875 -85.6875 83.1875 -91.0625 C 83.1875 -96.1875 81.679688 -100.222656 78.671875 -103.171875 C 75.660156 -106.117188 71.144531 -107.59375 65.125 -107.59375 L 44.765625 -107.59375 Z M 44.765625 -74.15625 "/></g></g></g><g fill="#2c6b2f" fill-opacity="1"><g transform="translate(660.079009, 479.962696)"><g><path d="M 138.515625 -134.875 L 90.6875 0 L 49.5625 0 L 1.734375 -134.875 L 36.703125 -134.875 L 70.125 -33.046875 L 103.75 -134.875 Z M 138.515625 -134.875 "/></g></g></g><g fill="#2c6b2f" fill-opacity="1"><g transform="translate(821.262256, 479.962696)"><g><path d="M 44.765625 -108.546875 L 44.765625 -81.265625 L 88.765625 -81.265625 L 88.765625 -55.90625 L 44.765625 -55.90625 L 44.765625 -26.328125 L 94.53125 -26.328125 L 94.53125 0 L 11.90625 0 L 11.90625 -134.875 L 94.53125 -134.875 L 94.53125 -108.546875 Z M 44.765625 -108.546875 "/></g></g></g><g fill="#2c6b2f" fill-opacity="1"><g transform="translate(946.136357, 479.962696)"><g><path d="M 60.71875 1.34375 C 50.851562 1.34375 42.015625 -0.253906 34.203125 -3.453125 C 26.390625 -6.660156 20.144531 -11.398438 15.46875 -17.671875 C 10.789062 -23.953125 8.320312 -31.507812 8.0625 -40.34375 L 43.03125 -40.34375 C 43.539062 -35.351562 45.269531 -31.539062 48.21875 -28.90625 C 51.164062 -26.28125 55.007812 -24.96875 59.75 -24.96875 C 64.613281 -24.96875 68.453125 -26.085938 71.265625 -28.328125 C 74.085938 -30.578125 75.5 -33.6875 75.5 -37.65625 C 75.5 -40.988281 74.378906 -43.742188 72.140625 -45.921875 C 69.898438 -48.097656 67.144531 -49.890625 63.875 -51.296875 C 60.613281 -52.703125 55.972656 -54.300781 49.953125 -56.09375 C 41.242188 -58.789062 34.132812 -61.484375 28.625 -64.171875 C 23.113281 -66.859375 18.375 -70.828125 14.40625 -76.078125 C 10.4375 -81.328125 8.453125 -88.179688 8.453125 -96.640625 C 8.453125 -109.191406 13 -119.019531 22.09375 -126.125 C 31.1875 -133.238281 43.035156 -136.796875 57.640625 -136.796875 C 72.492188 -136.796875 84.46875 -133.238281 93.5625 -126.125 C 102.65625 -119.019531 107.523438 -109.128906 108.171875 -96.453125 L 72.625 -96.453125 C 72.363281 -100.804688 70.757812 -104.226562 67.8125 -106.71875 C 64.875 -109.21875 61.097656 -110.46875 56.484375 -110.46875 C 52.515625 -110.46875 49.3125 -109.410156 46.875 -107.296875 C 44.445312 -105.179688 43.234375 -102.140625 43.234375 -98.171875 C 43.234375 -93.816406 45.28125 -90.421875 49.375 -87.984375 C 53.476562 -85.554688 59.882812 -82.929688 68.59375 -80.109375 C 77.300781 -77.171875 84.375 -74.351562 89.8125 -71.65625 C 95.257812 -68.96875 99.96875 -65.0625 103.9375 -59.9375 C 107.90625 -54.820312 109.890625 -48.226562 109.890625 -40.15625 C 109.890625 -32.46875 107.9375 -25.484375 104.03125 -19.203125 C 100.125 -12.929688 94.457031 -7.9375 87.03125 -4.21875 C 79.601562 -0.507812 70.832031 1.34375 60.71875 1.34375 Z M 60.71875 1.34375 "/></g></g></g><g fill="#2c6b2f" fill-opacity="1"><g transform="translate(1085.226705, 479.962696)"><g><path d="M 108.9375 -134.875 L 108.9375 -108.546875 L 73.203125 -108.546875 L 73.203125 0 L 40.34375 0 L 40.34375 -108.546875 L 4.609375 -108.546875 L 4.609375 -134.875 Z M 108.9375 -134.875 "/></g></g></g><path stroke-linecap="butt" transform="matrix(0.00000000132178, 0.757325, -0.757325, 0.00000000132178, 80.068457, 104.164073)" fill="none" stroke-linejoin="miter" d="M -0.0000136406 15.002057 L 559.442681 15.002058 " stroke="#f51d00" stroke-width="30" stroke-opacity="1" stroke-miterlimit="4"/><path stroke-linecap="butt" transform="matrix(0.757325, 0, 0, 0.757325, 68.71051, 405.366206)" fill="none" stroke-linejoin="miter" d="M 0.000564741 9.997423 L 110.999871 9.997423 " stroke="#f51d00" stroke-width="20" stroke-opacity="1" stroke-miterlimit="4"/></svg>